<?xml version="1.0" standalone="no"?>
<!DOCTYPE svg PUBLIC "-//W3C//DTD SVG 20010904//EN"
 "http://www.w3.org/TR/2001/REC-SVG-20010904/DTD/svg10.dtd">
<svg version="1.0" xmlns="http://www.w3.org/2000/svg"
 width="394.000000pt" height="394.000000pt" viewBox="0 0 394.000000 394.000000"
 preserveAspectRatio="xMidYMid meet">

<g transform="translate(0.000000,394.000000) scale(0.100000,-0.100000)"
fill="#000000" stroke="none">
<path d="M1804 3930 c-198 -17 -434 -77 -627 -161 -359 -155 -697 -457 -903
-806 -287 -485 -348 -1092 -165 -1625 76 -221 149 -357 290 -545 191 -256 460
-476 738 -605 461 -213 993 -241 1465 -79 221 76 357 149 545 290 256 191 476
460 605 738 213 461 241 993 79 1465 -76 221 -149 357 -290 545 -191 256 -460
476 -738 605 -205 94 -452 159 -679 178 -132 11 -186 11 -320 0z m-179 -1250
c88 -25 166 -65 201 -101 45 -47 53 -167 12 -192 -12 -8 -31 -1 -82 32 -269
176 -568 124 -691 -119 -108 -214 -102 -600 13 -780 89 -140 251 -206 437
-180 82 12 153 41 276 113 43 25 48 26 63 12 11 -12 16 -35 16 -82 0 -61 -2
-68 -33 -97 -40 -38 -142 -89 -223 -111 -90 -25 -263 -30 -354 -11 -232 49
-392 209 -460 459 -43 156 -43 406 0 572 55 216 201 394 378 464 137 54 306
62 447 21z m551 -2 c7 -7 108 -294 224 -638 117 -344 216 -630 219 -637 4 -7
103 278 221 633 242 726 209 659 326 659 70 0 98 -16 88 -49 -12 -42 -495
-1416 -505 -1440 -17 -37 -57 -49 -154 -45 -73 3 -89 7 -103 25 -10 11 -131
346 -271 743 -193 550 -252 727 -244 739 5 9 21 20 34 24 35 11 151 1 165 -14z"/>
</g>
</svg>
